<svg width="736" height="679" viewBox="0 0 736 679" fill="none" xmlns="http://www.w3.org/2000/svg">
<path d="M75.6894 212.633C75.5939 212.654 75.506 212.696 75.4333 212.753C75.3605 212.81 75.305 212.882 75.2718 212.962C75.2386 213.043 75.2286 213.128 75.2427 213.213C75.2567 213.297 75.2945 213.377 75.3525 213.445C136.134 274.893 168.798 353.329 167.218 434.042C167.218 434.565 166.139 434.739 166.005 434.042C104.806 268.014 26.6227 230.339 0 203.809C0 203.809 2.05636e-05 203.112 0.337017 202.938C20.5568 196.32 39.2264 190.109 57.896 184.478C82.2272 176.989 106.828 170.255 131.092 162.94C131.518 162.959 131.946 162.959 132.372 162.94L145.852 191.037L142.078 192.14C120.847 198.12 100.223 204.912 75.6894 212.633Z" fill="#FF4400"/>
<path d="M267.634 114.357L264.418 144.655H262.944C246.796 144.28 192.592 145.405 192.726 145.565C210.95 231.803 210.548 294.809 173.027 379.976C173.027 380.458 171.754 379.976 171.888 379.976C196.143 286.672 171.888 198.935 133.831 109.218C133.81 109.146 133.811 109.072 133.832 109.001C133.853 108.929 133.894 108.862 133.952 108.806C134.01 108.749 134.084 108.703 134.167 108.673C134.251 108.642 134.342 108.627 134.434 108.629C162.173 109.86 186.092 110.824 210.146 111.948L267.634 114.357Z" fill="#FF4400"/>
<path d="M167.273 449.529C167.273 449.529 346.271 209.505 298.671 0L736 249.128C736 249.128 711.754 518.525 527.055 678.903C527.055 678.903 679.677 504.783 670.542 284.398L369.625 101.861C369.625 101.861 356.918 234.756 167.273 449.529Z" fill="#FF4400"/>
</svg>
