<svg width="340" height="189" viewBox="0 0 340 189" fill="none" xmlns="http://www.w3.org/2000/svg">
<path d="M255.2 111.359C259.32 114.068 262.523 117.959 264.385 122.519V108.246H287.342V187.131H264.385V172.857C262.531 177.423 259.326 181.316 255.2 184.018C250.774 186.84 245.603 188.27 240.353 188.127C234.426 188.211 228.61 186.507 223.666 183.24C218.559 179.748 214.539 174.893 212.064 169.231C209.094 162.46 207.641 155.124 207.806 147.735C207.613 140.293 209.068 132.901 212.064 126.084C214.548 120.426 218.567 115.574 223.666 112.075C228.61 108.808 234.426 107.104 240.353 107.187C245.609 107.062 250.782 108.515 255.2 111.359ZM235.831 133.555C232.805 136.948 231.308 141.665 231.308 147.688C231.308 153.712 232.868 158.428 235.831 161.821C237.373 163.442 239.232 164.728 241.291 165.604C243.351 166.479 245.568 166.924 247.806 166.91C250.046 166.897 252.257 166.426 254.306 165.528C256.357 164.628 258.199 163.319 259.722 161.681C262.994 157.767 264.665 152.764 264.401 147.673C264.401 141.737 262.842 137.068 259.722 133.664C258.232 131.983 256.388 130.65 254.325 129.76C252.26 128.87 250.024 128.443 247.777 128.512C245.536 128.419 243.302 128.823 241.236 129.695C239.171 130.567 237.325 131.886 235.831 133.555Z" fill="black"/>
<path d="M48.4698 166.348V187.128H38.0834C29.2566 187.128 22.3895 184.844 17.4822 180.279C12.5749 175.714 10.1213 168.149 10.1213 157.585V128.602H0V108.242H10.1213V88.8789H33.2177V108.242H48.3451V128.602H33.2177V158.005C33.2177 161.118 33.826 163.282 35.0424 164.511C36.7677 165.909 38.9761 166.569 41.1869 166.348H48.4698Z" fill="black"/>
<path d="M104.907 111.359C109.027 114.068 112.23 117.959 114.092 122.519V108.246H137.048V187.131H114.092V172.857C112.238 177.423 109.034 181.316 104.907 184.018C100.481 186.84 95.3095 188.27 90.0602 188.127C84.1368 188.21 78.3265 186.507 73.3889 183.24C68.2734 179.753 64.2464 174.898 61.7705 169.231C58.8012 162.46 57.3482 155.124 57.513 147.735C57.3203 140.293 58.7739 132.901 61.7705 126.084C64.2552 120.422 68.2803 115.568 73.3889 112.075C78.3265 108.808 84.1368 107.104 90.0602 107.187C95.3159 107.062 100.488 108.515 104.907 111.359ZM85.5376 133.555C82.5121 136.948 81.015 141.665 81.015 147.688C81.015 153.712 82.5745 158.428 85.5376 161.821C87.08 163.442 88.9383 164.728 90.9979 165.604C93.0577 166.479 95.2752 166.924 97.5139 166.91C99.7524 166.897 101.965 166.426 104.014 165.528C106.063 164.628 107.906 163.319 109.429 161.681C112.548 158.195 114.108 153.541 114.108 147.673C114.108 141.805 112.548 137.057 109.429 133.664C107.891 132.046 106.038 130.757 103.984 129.876C101.931 128.996 99.7188 128.541 97.4835 128.541C95.2482 128.541 93.0364 128.996 90.9826 129.876C88.9289 130.757 87.0762 132.046 85.5376 133.664V133.555Z" fill="black"/>
<path d="M187.228 111.636C191.647 108.837 196.778 107.363 202.012 107.387V133.272H195.384C189.27 133.272 184.525 134.637 181.145 137.366C177.766 140.095 176.077 144.713 176.077 151.219V187.129H152.996V108.243H176.077V123.093C178.815 118.434 182.641 114.503 187.228 111.636Z" fill="black"/>
<path d="M188.763 57.5896C188.742 57.5954 188.721 57.6066 188.704 57.622C188.687 57.6374 188.674 57.6566 188.667 57.6781C188.659 57.6995 188.657 57.7226 188.66 57.7451C188.664 57.7677 188.671 57.7892 188.685 57.8076C202.749 74.2834 210.307 95.3147 209.942 116.956C209.942 117.096 209.692 117.143 209.661 116.956C195.501 72.4391 177.41 62.3371 171.25 55.2237C171.25 55.2237 171.25 55.0369 171.328 54.9902C176.007 53.2157 180.326 51.5502 184.646 50.0404C190.276 48.0325 195.968 46.2269 201.583 44.2656C201.681 44.2708 201.781 44.2708 201.879 44.2656L204.998 51.7993L204.125 52.095C199.212 53.6983 194.44 55.5194 188.763 57.5896Z" fill="#FF4400"/>
<path d="M234.487 31.0249L233.738 39.835H233.395C229.637 39.726 217.02 40.0529 217.052 40.0996C221.293 65.1755 221.2 83.496 212.467 108.261C212.467 108.401 212.17 108.261 212.201 108.261C217.847 81.1301 212.201 55.6183 203.343 29.5307C203.339 29.5098 203.339 29.4882 203.343 29.4675C203.348 29.4466 203.357 29.4273 203.371 29.4108C203.385 29.3943 203.403 29.3811 203.421 29.3722C203.442 29.3632 203.462 29.3588 203.484 29.3594C209.94 29.7174 215.508 29.9976 221.106 30.3245L234.487 31.0249Z" fill="#FF4400"/>
<path d="M210.379 122.204C210.379 122.204 251.02 56.9539 240.213 0L339.507 67.7252C339.507 67.7252 334.002 140.961 292.066 184.559C292.066 184.559 326.719 137.225 324.645 77.3135L256.322 27.6909C256.322 27.6909 253.437 63.8183 210.379 122.204Z" fill="#FF4400"/>
</svg>
